# File created by Blade
# Date/Time:  Wed Sep 24 19:42:34 2014
# Frame Rate: 120.000 fps
#------------------------------------------------------
:FULLY-SPECIFIED
:DEGREES
1704
root -5.121549 33.038829 -3.030112 5.469404 2.773858 -2.575267
Spine -17.029897 15.942899 -9.994603
Head 18.809434 -22.385082 -1.920326
LeftShoulder -15.236298 23.708243 6.428445
LeftArm 25.035035 28.190157 -60.793821
LeftForeArm 2.593050 -0.000000 24.020123
LeftHand -24.670355 -0.000000 -7.641487
LeftHandThumb1 -26.253704 0.000000 33.147579
RightShoulder 163.850918 165.181967 132.541859
RightArm 64.281079 19.177907 15.849793
RightForeArm -20.793465 -0.000000 58.589380
RightHand -4.597671 -0.000000 39.702392
RightHandThumb1 -24.326973 -0.000000 -32.862282
LeftUpLeg 0.321983 3.099412 7.517258
LeftLeg -1.244067 -0.000000 0.000000
LeftFoot -8.836292 5.375023 -20.228575
LeftToeBase 10.359579 -0.000000 -0.000000
RightUpLeg -1.708720 -8.519217 1.258605
RightLeg 2.812203 -0.000000 -0.000000
RightFoot -6.546435 -4.619561 -15.396231
RightToeBase 0.309185 -0.000000 -0.000000
1705
root -5.119250 33.040475 -3.043050 5.460225 2.810282 -2.573160
Spine -16.995401 15.986612 -10.016058
Head 18.715480 -22.672499 -1.927388
LeftShoulder -15.180099 23.744107 6.447281
LeftArm 25.023981 28.096848 -60.777339
LeftForeArm 2.631649 -0.000000 24.022675
LeftHand -24.644469 0.000000 -7.672010
LeftHandThumb1 -26.253704 0.000000 33.147579
RightShoulder 163.961158 165.388382 132.638696
RightArm 64.164536 18.820536 15.514047
RightForeArm -21.018077 -0.000000 57.944430
RightHand -4.731676 -0.000000 40.217148
RightHandThumb1 -24.326973 -0.000000 -32.862282
LeftUpLeg 0.286125 3.130610 7.509796
LeftLeg -1.218711 -0.000000 0.000000
LeftFoot -8.805000 5.337067 -20.180156
LeftToeBase 10.324337 -0.000000 -0.000000
RightUpLeg -1.729675 -8.528650 1.257975
RightLeg 2.829831 -0.000000 -0.000000
RightFoot -6.515372 -4.664757 -15.422064
RightToeBase 0.303666 -0.000000 -0.000000
1706
root -5.117196 33.041630 -3.056973 5.461150 2.861324 -2.565250
Spine -16.956192 15.994041 -10.031539
Head 18.618431 -22.895832 -1.903856
LeftShoulder -15.160661 23.744592 6.469909
LeftArm 25.005146 28.053000 -60.754632
LeftForeArm 2.582415 -0.000000 24.004027
LeftHand -24.616982 -0.000000 -7.550782
LeftHandThumb1 -26.253704 0.000000 33.147579
RightShoulder 164.010283 165.384399 132.679477
RightArm 64.119308 18.281330 15.325669
RightForeArm -21.434505 -0.000000 57.258135
RightHand -4.745093 -0.000000 40.526966
RightHandThumb1 -24.326973 -0.000000 -32.862282
LeftUpLeg 0.242489 3.157112 7.499139
LeftLeg -1.207044 -0.000000 0.000000
LeftFoot -8.751877 5.272243 -20.150784
LeftToeBase 10.288899 -0.000000 -0.000000
RightUpLeg -1.755883 -8.557810 1.252377
RightLeg 2.841383 -0.000000 -0.000000
RightFoot -6.505963 -4.660136 -15.377832
RightToeBase 0.324663 -0.000000 -0.000000
1707
root -5.115046 33.043092 -3.068471 5.449428 2.910384 -2.563837
Spine -16.901942 16.001849 -10.028200
Head 18.538243 -23.098377 -1.862101
LeftShoulder -15.160511 23.759421 6.488346
LeftArm 25.024436 28.034115 -60.715338
LeftForeArm 2.537719 -0.000000 23.981347
LeftHand -24.622397 0.000000 -7.512342
LeftHandThumb1 -26.253704 0.000000 33.147579
RightShoulder 164.043960 164.975434 132.496130
RightArm 63.836384 17.382207 15.164322
RightForeArm -21.800450 -0.000000 56.744876
RightHand -4.813521 -0.000000 41.010523
RightHandThumb1 -24.326973 -0.000000 -32.862282
LeftUpLeg 0.219230 3.214417 7.492784
LeftLeg -1.203767 -0.000000 0.000000
LeftFoot -8.703803 5.209607 -20.117349
LeftToeBase 10.346864 -0.000000 -0.000000
RightUpLeg -1.762748 -8.594758 1.253143
RightLeg 2.845185 -0.000000 -0.000000
RightFoot -6.484764 -4.669959 -15.368255
RightToeBase 0.327459 -0.000000 -0.000000
1708
root -5.110997 33.045676 -3.083087 5.478654 2.965363 -2.538124
Spine -16.889280 15.986053 -10.058868
Head 18.464036 -23.249992 -1.780703
LeftShoulder -15.158487 23.756548 6.519344
LeftArm 24.972098 27.935438 -60.741426
LeftForeArm 2.560088 -0.000000 23.968838
LeftHand -24.625107 -0.000000 -7.545592
LeftHandThumb1 -26.253704 0.000000 33.147579
RightShoulder 164.100859 165.015323 132.565955
RightArm 63.783750 17.004889 14.936022
RightForeArm -22.270214 0.000000 56.196465
RightHand -4.819297 0.000000 41.341003
RightHandThumb1 -24.326973 -0.000000 -32.862282
LeftUpLeg 0.146533 3.222690 7.457539
LeftLeg -1.195492 -0.000000 0.000000
LeftFoot -8.638321 5.184950 -20.087467
LeftToeBase 10.255493 -0.000000 -0.000000
RightUpLeg -1.816499 -8.633790 1.232077
RightLeg 2.850342 -0.000000 -0.000000
RightFoot -6.454408 -4.672947 -15.363575
RightToeBase 0.329553 -0.000000 -0.000000
1709
root -5.107088 33.047305 -3.094453 5.483099 3.018683 -2.516181
Spine -16.845464 15.978344 -10.072191
Head 18.384323 -23.366287 -1.672989
LeftShoulder -15.176897 23.793483 6.537963
LeftArm 24.984503 27.835048 -60.742687
LeftForeArm 2.539702 -0.000000 23.959953
LeftHand -24.596219 -0.000000 -7.598945
LeftHandThumb1 -26.253704 0.000000 33.147579
RightShoulder 164.156943 165.155140 132.715453
RightArm 63.757175 16.784123 14.612694
RightForeArm -22.682951 -0.000000 55.701840
RightHand -4.865920 -0.000000 41.331955
RightHandThumb1 -24.326973 -0.000000 -32.862282
LeftUpLeg 0.108388 3.285322 7.430221
LeftLeg -1.192377 -0.000000 0.000000
LeftFoot -8.571924 5.101077 -20.039642
LeftToeBase 10.307347 -0.000000 -0.000000
RightUpLeg -1.831018 -8.689282 1.212322
RightLeg 2.839004 -0.000000 -0.000000
RightFoot -6.441822 -4.662781 -15.363008
RightToeBase 0.324282 -0.000000 -0.000000
1710
root -5.104608 33.049003 -3.105309 5.476520 3.067081 -2.507627
Spine -16.779848 15.997895 -10.060768
Head 18.323892 -23.498773 -1.585900
LeftShoulder -15.148147 23.779169 6.557620
LeftArm 24.913792 27.766719 -60.746800
LeftForeArm 2.522546 -0.000000 24.019095
LeftHand -24.749087 0.000000 -7.511686
LeftHandThumb1 -26.253704 0.000000 33.147579
RightShoulder 164.174487 165.044640 132.682428
RightArm 63.607276 16.324127 14.429046
RightForeArm -23.272412 -0.000000 55.407256
RightHand -4.951676 -0.000000 41.613423
RightHandThumb1 -24.326973 -0.000000 -32.862282
LeftUpLeg 0.086484 3.344533 7.415668
LeftLeg -1.200141 -0.000000 0.000000
LeftFoot -8.507964 5.030416 -20.021722
LeftToeBase 10.273655 -0.000000 -0.000000
RightUpLeg -1.826457 -8.740280 1.203099
RightLeg 2.812480 -0.000000 -0.000000
RightFoot -6.415907 -4.653172 -15.370319
RightToeBase 0.344595 -0.000000 -0.000000
